<svg width="512" height="512" viewBox="0 0 512 512" fill="none" xmlns="http://www.w3.org/2000/svg">
<g clip-path="url(#clip0_1_2)">
<path d="M481.152 19.6913C471.521 11.659 460.23 5.86107 448.09 2.71457C435.95 -0.431942 423.264 -0.84881 410.944 1.49395L215.019 38.2299C190.565 42.8127 168.482 55.7994 152.592 74.9429C136.701 94.0865 128.002 118.183 128 143.062V353.195C115.086 345.517 100.357 341.422 85.3334 341.334C68.456 341.334 51.9577 346.339 37.9247 355.715C23.8917 365.092 12.9543 378.419 6.49565 394.012C0.0369733 409.604 -1.65291 426.762 1.63969 443.315C4.9323 459.868 13.0595 475.073 24.9936 487.007C36.9277 498.941 52.1326 507.068 68.6857 510.361C85.2387 513.654 102.396 511.964 117.989 505.505C133.582 499.046 146.909 488.109 156.285 474.076C165.662 460.043 170.667 443.545 170.667 426.667V232.022C170.666 222.068 174.146 212.426 180.504 204.767C186.862 197.107 195.698 191.912 205.483 190.081L444.053 145.281C447.148 144.698 450.333 144.808 453.381 145.602C456.428 146.396 459.262 147.855 461.678 149.874C464.095 151.893 466.035 154.422 467.358 157.279C468.682 160.137 469.356 163.252 469.333 166.401V289.281C456.428 281.572 441.699 277.448 426.667 277.334C409.789 277.334 393.291 282.339 379.258 291.715C365.225 301.092 354.288 314.419 347.829 330.012C341.37 345.604 339.68 362.762 342.973 379.315C346.266 395.868 354.393 411.073 366.327 423.007C378.261 434.941 393.466 443.068 410.019 446.361C426.572 449.654 443.73 447.964 459.322 441.505C474.915 435.046 488.242 424.109 497.619 410.076C506.995 396.043 512 379.545 512 362.667V85.3339C512.015 72.795 509.257 60.408 503.924 49.0597C498.591 37.7114 490.815 27.6826 481.152 19.6913Z" fill="#F78316"/>
</g>
<defs>
<clipPath id="clip0_1_2">
<rect width="512" height="512" fill="white"/>
</clipPath>
</defs>
</svg>
